<mxfile host="65bd71144e">
    <diagram id="7fD3FDOGC0QW7yyPOkAJ" name="Page-1">
        <mxGraphModel dx="1382" dy="917" grid="1" gridSize="10" guides="1" tooltips="1" connect="1" arrows="1" fold="1" page="1" pageScale="1" pageWidth="1200" pageHeight="1920" math="0" shadow="0">
            <root>
                <mxCell id="0"/>
                <mxCell id="1" parent="0"/>
                <mxCell id="4" value="A project" style="swimlane;fontStyle=0;childLayout=stackLayout;horizontal=1;startSize=30;horizontalStack=0;resizeParent=1;resizeParentMax=0;resizeLast=0;collapsible=1;marginBottom=0;" vertex="1" parent="1">
                    <mxGeometry x="80" y="110" width="220" height="130" as="geometry"/>
                </mxCell>
                <mxCell id="5" value="Associates objects and services with billing" style="text;strokeColor=none;fillColor=none;align=left;verticalAlign=middle;spacingLeft=4;spacingRight=4;overflow=hidden;points=[[0,0.5],[1,0.5]];portConstraint=eastwest;rotatable=0;whiteSpace=wrap;" vertex="1" parent="4">
                    <mxGeometry y="30" width="220" height="50" as="geometry"/>
                </mxCell>
                <mxCell id="6" value="Contains networks (up to 5) that can be shared/peered" style="text;strokeColor=none;fillColor=none;align=left;verticalAlign=middle;spacingLeft=4;spacingRight=4;overflow=hidden;points=[[0,0.5],[1,0.5]];portConstraint=eastwest;rotatable=0;whiteSpace=wrap;" vertex="1" parent="4">
                    <mxGeometry y="80" width="220" height="50" as="geometry"/>
                </mxCell>
                <mxCell id="9" value="A network" style="swimlane;fontStyle=0;childLayout=stackLayout;horizontal=1;startSize=30;horizontalStack=0;resizeParent=1;resizeParentMax=0;resizeLast=0;collapsible=1;marginBottom=0;" vertex="1" parent="1">
                    <mxGeometry x="380" y="200" width="170" height="160" as="geometry"/>
                </mxCell>
                <mxCell id="10" value="Has no IP address range" style="text;strokeColor=none;fillColor=none;align=left;verticalAlign=middle;spacingLeft=4;spacingRight=4;overflow=hidden;points=[[0,0.5],[1,0.5]];portConstraint=eastwest;rotatable=0;" vertex="1" parent="9">
                    <mxGeometry y="30" width="170" height="30" as="geometry"/>
                </mxCell>
                <mxCell id="11" value="Is global and spans all available regions" style="text;strokeColor=none;fillColor=none;align=left;verticalAlign=middle;spacingLeft=4;spacingRight=4;overflow=hidden;points=[[0,0.5],[1,0.5]];portConstraint=eastwest;rotatable=0;whiteSpace=wrap;" vertex="1" parent="9">
                    <mxGeometry y="60" width="170" height="40" as="geometry"/>
                </mxCell>
                <mxCell id="12" value="Contains subnetworks" style="text;strokeColor=none;fillColor=none;align=left;verticalAlign=middle;spacingLeft=4;spacingRight=4;overflow=hidden;points=[[0,0.5],[1,0.5]];portConstraint=eastwest;rotatable=0;" vertex="1" parent="9">
                    <mxGeometry y="100" width="170" height="30" as="geometry"/>
                </mxCell>
                <mxCell id="14" value="Is available as default, auto and custom" style="text;strokeColor=none;fillColor=none;align=left;verticalAlign=middle;spacingLeft=4;spacingRight=4;overflow=hidden;points=[[0,0.5],[1,0.5]];portConstraint=eastwest;rotatable=0;whiteSpace=wrap;" vertex="1" parent="9">
                    <mxGeometry y="130" width="170" height="30" as="geometry"/>
                </mxCell>
                <mxCell id="13" style="edgeStyle=none;html=1;exitX=1;exitY=0.5;exitDx=0;exitDy=0;entryX=0.007;entryY=0.121;entryDx=0;entryDy=0;entryPerimeter=0;" edge="1" parent="1" source="6" target="9">
                    <mxGeometry relative="1" as="geometry"/>
                </mxCell>
                <mxCell id="16" value="Default" style="swimlane;fontStyle=0;childLayout=stackLayout;horizontal=1;startSize=30;horizontalStack=0;resizeParent=1;resizeParentMax=0;resizeLast=0;collapsible=1;marginBottom=0;" vertex="1" parent="1">
                    <mxGeometry x="660" y="200" width="130" height="120" as="geometry"/>
                </mxCell>
                <mxCell id="17" value="Every project" style="text;strokeColor=none;fillColor=none;align=left;verticalAlign=middle;spacingLeft=4;spacingRight=4;overflow=hidden;points=[[0,0.5],[1,0.5]];portConstraint=eastwest;rotatable=0;" vertex="1" parent="16">
                    <mxGeometry y="30" width="130" height="30" as="geometry"/>
                </mxCell>
                <mxCell id="18" value="One subnet per region" style="text;strokeColor=none;fillColor=none;align=left;verticalAlign=middle;spacingLeft=4;spacingRight=4;overflow=hidden;points=[[0,0.5],[1,0.5]];portConstraint=eastwest;rotatable=0;" vertex="1" parent="16">
                    <mxGeometry y="60" width="130" height="30" as="geometry"/>
                </mxCell>
                <mxCell id="19" value="Default firewall rules" style="text;strokeColor=none;fillColor=none;align=left;verticalAlign=middle;spacingLeft=4;spacingRight=4;overflow=hidden;points=[[0,0.5],[1,0.5]];portConstraint=eastwest;rotatable=0;" vertex="1" parent="16">
                    <mxGeometry y="90" width="130" height="30" as="geometry"/>
                </mxCell>
                <mxCell id="20" style="edgeStyle=orthogonalEdgeStyle;html=1;exitX=1;exitY=0.5;exitDx=0;exitDy=0;entryX=0.001;entryY=0.149;entryDx=0;entryDy=0;entryPerimeter=0;" edge="1" parent="1" source="14" target="16">
                    <mxGeometry relative="1" as="geometry">
                        <mxPoint x="640" y="230" as="targetPoint"/>
                    </mxGeometry>
                </mxCell>
                <mxCell id="21" value="Auto Mode" style="swimlane;fontStyle=0;childLayout=stackLayout;horizontal=1;startSize=30;horizontalStack=0;resizeParent=1;resizeParentMax=0;resizeLast=0;collapsible=1;marginBottom=0;" vertex="1" parent="1">
                    <mxGeometry x="790" y="200" width="130" height="190" as="geometry"/>
                </mxCell>
                <mxCell id="22" value="Default network" style="text;strokeColor=none;fillColor=none;align=left;verticalAlign=middle;spacingLeft=4;spacingRight=4;overflow=hidden;points=[[0,0.5],[1,0.5]];portConstraint=eastwest;rotatable=0;" vertex="1" parent="21">
                    <mxGeometry y="30" width="130" height="30" as="geometry"/>
                </mxCell>
                <mxCell id="23" value="One subnet per region" style="text;strokeColor=none;fillColor=none;align=left;verticalAlign=middle;spacingLeft=4;spacingRight=4;overflow=hidden;points=[[0,0.5],[1,0.5]];portConstraint=eastwest;rotatable=0;" vertex="1" parent="21">
                    <mxGeometry y="60" width="130" height="30" as="geometry"/>
                </mxCell>
                <mxCell id="24" value="Regional IP allocation" style="text;strokeColor=none;fillColor=none;align=left;verticalAlign=middle;spacingLeft=4;spacingRight=4;overflow=hidden;points=[[0,0.5],[1,0.5]];portConstraint=eastwest;rotatable=0;" vertex="1" parent="21">
                    <mxGeometry y="90" width="130" height="30" as="geometry"/>
                </mxCell>
                <mxCell id="26" value="Fixed /20 subnetwork per region" style="text;strokeColor=none;fillColor=none;align=left;verticalAlign=middle;spacingLeft=4;spacingRight=4;overflow=hidden;points=[[0,0.5],[1,0.5]];portConstraint=eastwest;rotatable=0;whiteSpace=wrap;" vertex="1" parent="21">
                    <mxGeometry y="120" width="130" height="40" as="geometry"/>
                </mxCell>
                <mxCell id="25" value="Expandable up to /16" style="text;strokeColor=none;fillColor=none;align=left;verticalAlign=middle;spacingLeft=4;spacingRight=4;overflow=hidden;points=[[0,0.5],[1,0.5]];portConstraint=eastwest;rotatable=0;" vertex="1" parent="21">
                    <mxGeometry y="160" width="130" height="30" as="geometry"/>
                </mxCell>
                <mxCell id="27" value="Custom Mode" style="swimlane;fontStyle=0;childLayout=stackLayout;horizontal=1;startSize=30;horizontalStack=0;resizeParent=1;resizeParentMax=0;resizeLast=0;collapsible=1;marginBottom=0;" vertex="1" parent="1">
                    <mxGeometry x="920" y="200" width="130" height="170" as="geometry"/>
                </mxCell>
                <mxCell id="28" value="No default subnets created" style="text;strokeColor=none;fillColor=none;align=left;verticalAlign=middle;spacingLeft=4;spacingRight=4;overflow=hidden;points=[[0,0.5],[1,0.5]];portConstraint=eastwest;rotatable=0;whiteSpace=wrap;" vertex="1" parent="27">
                    <mxGeometry y="30" width="130" height="40" as="geometry"/>
                </mxCell>
                <mxCell id="29" value="Full control of IP ranges" style="text;strokeColor=none;fillColor=none;align=left;verticalAlign=middle;spacingLeft=4;spacingRight=4;overflow=hidden;points=[[0,0.5],[1,0.5]];portConstraint=eastwest;rotatable=0;whiteSpace=wrap;" vertex="1" parent="27">
                    <mxGeometry y="70" width="130" height="30" as="geometry"/>
                </mxCell>
                <mxCell id="30" value="Regional IP allocation" style="text;strokeColor=none;fillColor=none;align=left;verticalAlign=middle;spacingLeft=4;spacingRight=4;overflow=hidden;points=[[0,0.5],[1,0.5]];portConstraint=eastwest;rotatable=0;" vertex="1" parent="27">
                    <mxGeometry y="100" width="130" height="30" as="geometry"/>
                </mxCell>
                <mxCell id="31" value="Expandable to IP ranges you specify" style="text;strokeColor=none;fillColor=none;align=left;verticalAlign=middle;spacingLeft=4;spacingRight=4;overflow=hidden;points=[[0,0.5],[1,0.5]];portConstraint=eastwest;rotatable=0;whiteSpace=wrap;" vertex="1" parent="27">
                    <mxGeometry y="130" width="130" height="40" as="geometry"/>
                </mxCell>
            </root>
        </mxGraphModel>
    </diagram>
</mxfile>